<?xml version="1.0" encoding="UTF-8"?>
<svg id="Layer_1" data-name="Layer 1" xmlns="http://www.w3.org/2000/svg" viewBox="0 0 250 150">
  <defs>
    <style>
      .cls-1 {
        fill: #000;
      }

      .cls-1, .cls-2 {
        stroke-width: 0px;
      }

      .cls-2 {
        fill: #231f20;
      }
    </style>
  </defs>
  <g>
    <path class="cls-2" d="M112.03,125.01h2.36c1.85,0,2.89.94,2.89,2.43,0,1.21-.89,1.72-1.01,1.74.13.03,1.5.42,1.5,2.19,0,1.55-1.15,2.54-2.92,2.54h-2.81v-8.9ZM114.57,128.85c1.01,0,1.63-.55,1.63-1.41s-.62-1.41-1.63-1.41h-1.46v2.82h1.46ZM116.68,131.36c0-.84-.56-1.53-1.85-1.53h-1.73v3.05h1.73c1.28,0,1.85-.69,1.85-1.53Z"/>
    <path class="cls-2" d="M125.1,131.01c0,.11,0,.2-.01.34h-4.78c.06.89.92,1.72,2.04,1.72s1.78-.86,1.78-.86l.68.7s-.9,1.16-2.46,1.16c-1.8,0-3.09-1.35-3.09-3.09s1.18-3.09,2.96-3.09c1.65,0,2.89,1.23,2.89,3.13ZM124.04,130.46c-.04-.66-.64-1.59-1.83-1.59-1.28,0-1.81.98-1.88,1.59h3.72Z"/>
    <path class="cls-2" d="M131.89,130.04v3.86h-.99v-.85s-.67,1-2.01,1c-1.06,0-2.21-.74-2.21-2.01,0-1.14,1.01-1.96,2.35-1.96,1.09,0,1.78.48,1.78.48v-.32c0-1.22-1.03-1.39-1.5-1.39-.9,0-1.77.5-1.77.5l-.45-.89s.92-.6,2.22-.6c1.74,0,2.58,1.07,2.58,2.16ZM130.82,132.23v-.83s-.59-.42-1.55-.42-1.5.46-1.5,1.07c0,.76.69,1.07,1.36,1.07,1.05,0,1.69-.89,1.69-.89Z"/>
    <path class="cls-2" d="M134.18,131.81v-3.78h1.08v3.6c0,1,.63,1.44,1.42,1.44,1,0,1.47-.97,1.47-.97v-4.07h1.08v5.87h-1v-.9s-.54,1.06-1.82,1.06c-1.18,0-2.23-.8-2.23-2.25Z"/>
    <path class="cls-2" d="M141,128.03h1.15v-1.79h1.08v1.79h1.85v.97h-1.85v3.17c0,.57.28.9.86.9.33,0,.68-.24.68-.24l.4.88c-.51.28-.88.36-1.23.36-.85,0-1.78-.55-1.78-1.84v-3.22h-1.15v-.97Z"/>
    <path class="cls-2" d="M146.97,135.68s.37.31.71.31c.47,0,.69-.33.92-.9l.46-1.16-2.77-5.9h1.22l2.08,4.64,1.77-4.64h1.17s-2.98,7.42-3.12,7.77c-.35.85-1.01,1.18-1.64,1.18-.73,0-1.26-.42-1.26-.42l.46-.88Z"/>
    <path class="cls-2" d="M161.07,125.01h1l3.5,8.9h-1.13l-.94-2.4h-3.87l-.94,2.4h-1.15l3.53-8.9ZM160.04,130.49h3.08l-1.54-3.95-1.54,3.95Z"/>
    <path class="cls-2" d="M172.58,131.01c0,.11,0,.2-.01.34h-4.78c.06.89.92,1.72,2.04,1.72s1.78-.86,1.78-.86l.68.7s-.9,1.16-2.46,1.16c-1.8,0-3.09-1.35-3.09-3.09s1.18-3.09,2.96-3.09c1.65,0,2.89,1.23,2.89,3.13ZM171.53,130.46c-.04-.66-.64-1.59-1.83-1.59-1.28,0-1.81.98-1.88,1.59h3.72Z"/>
    <path class="cls-2" d="M174.81,132.14s.63.95,1.8.95c.6,0,1.28-.25,1.28-.72,0-.51-.44-.76-1.35-.94-1.27-.25-2.17-.75-2.17-1.86,0-.85.86-1.69,2.18-1.69,1.4,0,2.19.89,2.19.89l-.71.72s-.59-.65-1.49-.65c-.76,0-1.13.37-1.13.75,0,.44.46.69,1.44.89,1.13.24,2.09.66,2.09,1.86,0,1.13-1.21,1.72-2.35,1.72-1.67,0-2.54-1.23-2.54-1.23l.74-.69Z"/>
    <path class="cls-2" d="M180.42,128.03h1.15v-1.79h1.08v1.79h1.85v.97h-1.85v3.17c0,.57.28.9.86.9.33,0,.68-.24.68-.24l.4.88c-.51.28-.88.36-1.23.36-.85,0-1.78-.55-1.78-1.84v-3.22h-1.15v-.97Z"/>
    <path class="cls-2" d="M191.68,130.13v3.78h-1.08v-3.6c0-1-.63-1.44-1.42-1.44-.96,0-1.47.99-1.47.99v4.04h-1.08v-9.61h1.08v4.45c.18-.25.72-.86,1.74-.86,1.18,0,2.23.8,2.23,2.25Z"/>
    <path class="cls-2" d="M199.4,131.01c0,.11,0,.2-.01.34h-4.78c.06.89.92,1.72,2.04,1.72s1.78-.86,1.78-.86l.68.7s-.9,1.16-2.46,1.16c-1.8,0-3.09-1.35-3.09-3.09s1.18-3.09,2.96-3.09c1.65,0,2.89,1.23,2.89,3.13ZM198.35,130.46c-.04-.66-.64-1.59-1.83-1.59-1.28,0-1.81.98-1.88,1.59h3.72Z"/>
    <path class="cls-2" d="M200.76,128.03h1.15v-1.79h1.08v1.79h1.85v.97h-1.85v3.17c0,.57.28.9.86.9.33,0,.68-.24.68-.24l.4.88c-.51.28-.88.36-1.23.36-.85,0-1.78-.55-1.78-1.84v-3.22h-1.15v-.97Z"/>
    <path class="cls-2" d="M207.47,125.43c.4,0,.73.33.73.72s-.33.72-.73.72-.73-.33-.73-.72.33-.72.73-.72ZM206.93,128.03h1.08v5.87h-1.08v-5.87Z"/>
    <path class="cls-2" d="M215.55,132.93s-.86,1.13-2.42,1.13c-1.74,0-3.05-1.36-3.05-3.09s1.31-3.09,3.05-3.09c1.51,0,2.36,1.06,2.36,1.06l-.73.65s-.58-.71-1.63-.71c-1.19,0-1.97.94-1.97,2.1s.78,2.1,1.97,2.1,1.73-.84,1.73-.84l.69.7Z"/>
    <path class="cls-2" d="M217.6,132.14s.63.95,1.8.95c.6,0,1.28-.25,1.28-.72,0-.51-.44-.76-1.35-.94-1.27-.25-2.17-.75-2.17-1.86,0-.85.86-1.69,2.18-1.69,1.4,0,2.19.89,2.19.89l-.71.72s-.59-.65-1.49-.65c-.76,0-1.13.37-1.13.75,0,.44.46.69,1.44.89,1.13.24,2.09.66,2.09,1.86,0,1.13-1.21,1.72-2.35,1.72-1.67,0-2.54-1.23-2.54-1.23l.74-.69Z"/>
  </g>
  <path class="cls-1" d="M137.68,32.13s.24,2.38,1.75,2.76c.9.22,1.5-.53,1.98-1.19,1-1.37,1.03-3.62.12-5.05-.55-.85-1.68-1.01-2.4-.33-1.1,1.02-1.54,2.18-1.46,3.81ZM140.33,29.51c.9.13.81,1.67.55,2.43-.22.64-.58,1.43-1.35,1.3-.71-.12-.61-1.52-.52-2.18.23-1.78,1.33-1.55,1.33-1.55Z"/>
  <path class="cls-1" d="M88.7,57.91c1.41.86,2.11.95,3.07,1.67-.08-1.29-1.51-2.04-3.07-1.67Z"/>
  <path class="cls-1" d="M94.53,50.15c.59.55,1.24.75,2.58.81.37.02.77-.13.95.43.08.24.53.29.84.26,1.02-.07,2.12-.12,2.95-.66,1.62-1.05,3.09-2.31,4.58-3.58l-5.98,1.02c-1.51.2-2.94.04-4.04-1.23q.46,2.07-1.88,2.93Z"/>
  <path class="cls-1" d="M131.36,19.96c2.6,2.15,5.17,5.01,7.27,7.79-.71-1.59-1.9-3.36-2.89-4.82-8.1-11.98-21.3-12.11-33.28-5.68,11.35-3.85,19.97-4.73,28.91,2.71Z"/>
  <path class="cls-1" d="M57.41,113.44c-1.19-1.68-2.39-3.31-3.64-4.94-2.23-2.88-4.83-5.75-8.36-6.89-.54-.16-1.09-.33-1.68-.43h.11c2.28,0,4.45-.43,6.46-1.36s3.58-2.23,4.83-3.96c1.19-1.74,1.79-3.8,1.79-6.24,0-3.58-1.3-6.68-3.96-8.69-2.66-1.95-6.3-2.93-10.86-2.93h-13.84v.16c1.19.38,2.06,1.25,2.55,2.55.54,1.3.76,3.04.76,5.16v26.49c0,2.17-.22,3.96-.76,5.26-.49,1.3-1.36,2.12-2.55,2.5v.16h10.75v-.16c-1.25-.38-2.12-1.2-2.6-2.55-.54-1.3-.76-3.04-.76-5.21v-11.18h1.14c1.14,0,2.61.16,3.69.6,5.92,2.39,9.99,10.15,15.2,16.67.92,1.14,2.33,1.85,3.8,1.85h6.24v-.71c-1.3-.06-2.17-.22-3.96-1.36-1.79-1.14-3.04-3.09-4.34-4.78ZM35.64,100.52s-.05-21.33-.05-21.98h5.37c2.82,0,6.19.05,8.31,1.9,2.17,1.85,3.53,4.4,3.91,7,.43,3.37-.06,7.55-2.44,10.26-1.74,1.85-4.13,2.82-7.27,2.82h-7.82Z"/>
  <path class="cls-1" d="M70.65,87.22c1.57,0,2.82-1.3,2.82-2.82s-1.25-2.82-2.82-2.82-2.77,1.25-2.77,2.82,1.25,2.82,2.77,2.82Z"/>
  <path class="cls-1" d="M74.51,117.62c-.54-1.3-.76-3.04-.76-5.21v-21.77h-7.38v.16c1.19.38,2.06,1.25,2.55,2.55.54,1.3.76,3.04.76,5.16v13.9c0,2.17-.22,3.91-.76,5.27-.49,1.25-1.36,2.12-2.55,2.44v.16h10.75v-.16c-1.25-.33-2.12-1.2-2.61-2.5Z"/>
  <path class="cls-1" d="M123.63,90.64c-2.71,0-5.16.6-7.22,1.85-4.34,2.66-6.57,7.49-6.52,12.97-.05,5.43,2.17,10.26,6.52,12.92,2.06,1.25,4.5,1.9,7.22,1.9,7.98.16,13.9-6.41,13.73-14.82.16-8.47-5.75-14.98-13.73-14.82ZM130.74,115.77c-1.46,2.55-4.29,3.8-7.11,3.8s-5.65-1.25-7.17-3.8c-1.57-2.5-2.39-5.97-2.39-10.37.11-5.92,1.3-14.01,9.55-14.11,3.15,0,5.54,1.25,7.11,3.75,1.57,2.55,2.33,6.03,2.33,10.37s-.76,7.87-2.33,10.37Z"/>
  <path class="cls-1" d="M120.36,49.91c-3.17-2.09-9.25-6.73-12.4-10.63-.17-.22-.35-.43-.53-.64-1.21-1.36-6.48-7.5-8.3-12.91,0,0-1.23-3.23.62-6.59l.04-.07-.13.08s-1.12.41-2.12,2.1c0,0-3.59,6.91,8.2,20.93-.44-.3-.87-.57-1.33-.79-2.84-1.39-5.79-1.84-8.86-.89-.89.28-1.7.75-2.26,1.53-.27.38-.45.79-.15,1.23.3.45.78.45,1.2.31.88-.29,1.72-.67,2.59-.98,3.43-1.2,6.68-.58,9.84.85,1.68,2.01,2.91,2.9,5.15,5.03,1.32,1.28,5.55,4.23,5.55,4.23l2.9,2.19c.25,2.95-1.04,8.65-2.69,11.17-2.25,3.45-5.29,5.85-9.07,7.44-3.26,1.38-6.58,2.52-10.04,3.26-1.08.23-2.17.26-3.25-.04-1.74-.49-2.78-2.28-2.37-4.04.25-1.06.51-2.18-.23-2.53,0,0,.7-.44,1.03-1.28.39-.99.63-1.46,2.41-1.75l.85-.1c0-.19-.48-.24-.66-.32-2.05-.87-3.58-2.59-5.79-3.15l.08-.13s1.82-2.64.18-3.46l-3.44-1.72c-.74-.37-1.05-1.32-.59-2l.93-1.32c.73-1.08,2.41-3.59,2.92-6.45.05-.26.09-.47.12-.66.09-.48.15-.96.16-1.44.03-1.15-.05-2.68-.57-3.99,0,0-2.9-6.88,2.93-15.3l.59-.94,2.82-4.1c-1.11.72-3.67,4-3.67,4,0,0-1.7,2.37-2.18,3.25-1.37,2.49-3.71,7.99-1.59,13.54,0,0,2.53,5.97-2.25,11.5,0,0-2.2,2.06-1.33,3.87.16.33.41.59.71.8.52.37,1.92,1.26,3.22,1.74,0,0,1.12.27.1,1.66,0,0-1.11,1.45-.65,2.63.22.56.61.87,1.55,1.01.14.02.28.03.43.01-1.72,1.11-1.09,2.75-1.09,2.75,0,0,.31,1.45,2.54,1.56h0c.46.19.52.5.35,1-.13.39-.23.79-.34,1.18-1.03,3.4,2.39,6.01,5.12,5.51,1.28-.24,2.57-.39,3.86-.55,2.65-.34,4.48.52,5.73,2.95,1.15,2.23.69,7.34.67,11.01l-1.58-1.29c-.92-.87-2.12-1.3-3.31-1.3-1.68,0-3.37.92-4.02,3.04-1.74-1.03-4.07-1.52-6.41-1.52s-4.56.49-6.3,1.41c-6.52,3.09-7.33,14.17-1.52,18.35l.38.27c-2.44.81-4.83,2.5-5.05,5.05-.22,2.6,1.85,4.02,4.18,4.61,4.89,1.36,10.04.49,14.98,1.52,2.6.6,7.33,2.01,6.46,5.64-.71,2.82-3.42,4.4-6.13,5-1.46.32-2.98.49-4.51.49-3.96,0-7.92-1.19-11.02-3.85-1.57-1.47-2.88-3.2-3.75-5.21l-2.77,5.48c3.53,2.93,10.1,4.72,16.23,4.72,3.69,0,7.17-.65,9.72-2.06,1.68-.92,3.2-2.12,4.13-3.8,1.46-2.71.92-6.79-1.85-8.41-2.44-1.41-4.83-1.9-7.65-1.95l-8.69-.33c-5.7-.16-7.11-4.23-3.69-6.57,2.12,1.25,4.45,1.85,6.78,1.85,6.13,0,11.89-4.23,11.67-11.13.11-3.96-1.46-7.33-4.67-9.28.81-.92,2.23-.92,2.33-.92.84.03,1.62.48,2.12.86l.6.52h0s2.86,2.47,2.86,2.47l1.9-2.46c.14-1.39.47-4.41.15-8.27-.25-2.97-1.21-6.26-4.09-7.54-.2-.09-.85-.24-.85-.24,1.8-.59,3.71-1.43,5.15-2.12,3.53-1.69,6.69-4.87,8.47-7.17,2.49-3.21,3.53-11.92,3.53-11.92,2.42,1.18,4.73,4.16,5.84,5.95,2.5,4.05,4.19,17.38,4.19,17.38.47,4.33,2.76,20.69,11.65,27.48v6.18c0,2.17-.22,3.91-.76,5.27-.49,1.25-1.36,2.12-2.55,2.44v.16h10.75v-.16c-1.25-.33-2.12-1.2-2.61-2.5-.54-1.3-.76-3.04-.76-5.21v-3.75c1.07.48,2.21.89,3.43,1.22,1.28.34,2.31.49,3.35.54.23.72.5,1.42.82,2.1.49.98,1.09,1.95,1.79,2.82,2.71,3.53,5.86,5.1,10.26,4.94,4.67-.16,8.31-2.88,10.59-6.84l-.65-.22c-1.74,2.88-5.32,5.97-9.34,5.97-.92,0-1.85-.16-2.82-.54-3.42-1.3-5.54-4.51-6.51-8.41.76-.05,1.63-.22,2.6-.38,0,0,2.01-.49,3.96-1.14,4.12-1.46,9.55-3.8,11.35-8.2,1.25-3.2-.11-6.95-3.04-8.9-.98-.65-2.12-1.09-3.26-1.36-.92-.22-1.95-.33-2.98-.33-1.52,0-3.09.27-4.51.81-1.85.71-3.47,1.9-4.83,3.42-1.41,1.52-2.44,3.42-3.15,5.37-.76,2.01-1.09,4.23-1.03,6.41.03,1.3.23,2.59.57,3.83-1.82-.08-4.15-.59-6.59-1.84v-29.95h-7.38v.16c1.19.43,2.06,1.25,2.55,2.55.54,1.36.76,3.09.76,5.21v19.21c-4.23-3.97-8.17-11.16-9.83-24l.03-.02-1.04-9.43c-.32-3.6-.03-6.39.26-8.11.22-1.31.11-2.23.75-2.44,1.42,1.51,3.67,3.29,6.62,3.68.38.05.76.07,1.14.07,2.98,0,6.01-1.5,9.01-4.46,2.73-2.7,4.31-6.19,4.44-9.83.13-3.64-1-6.34-3.36-8.02-.12-.09-3.01-2.25-5.32-1.9-.31.05-.6.14-.86.27.61-1.85.69-3.83.89-5.76.08-.7-.13-1.05-.9-.84-2.25.62-4.49,1.27-6.52,2.46-2.34,1.38-3.87,3.43-4.69,6.01-.2.62-.22,1.05-.09,2.02,1.86-4.67,5.25-7.63,10.26-8.55-.15,3.63-1.13,6.89-3.73,9.48-.42.3-.79.52-1.12.7-.63.33-1.32.51-2.02.56-.73.05-1.33.11-1.83.16-.06-.24.19-.42.33-.58,1.51-1.68,3.06-3.34,4.56-5.02.76-.86,1.21-1.4,1.83-2.93-3.09,2.63-5.95,5.47-8.36,8.82-.16.04-.29.09-.4.13-.07-.38-.02-.76,0-1.12.18-4.14-1.21-7.8-3.43-11.19-.44-.67-.65-1.05-.05-1.87,1.18-1.61,1.5-3.6,1.48-5.57-.03-3.68-1.75-6.61-4.29-9.14-.37-.37-.77-.39-1.01.09-1.29,2.56-2.46,5.14-1.72,8.15.36,1.46,1.3,2.53,2.23,3.78.2-.62-.46-1.83-.61-2.24-.84-2.31-.79-3.84-.03-6.24.19-.62.57-1.48.98-1.58.32-.08.98.65,1.31,1.14,1.74,2.56,2.04,5.39,1.41,8.36-.14.67-.4,1.3-.66,2.12-1.26-3.38-.84-7.05-1.78-10.2-.33,3.65-.14,7.26,1.08,11.06-1.9-2.07-3.58-3.9-5.26-5.74-.54-.59-.89-1.31-1.16-2.05-1.34-3.74-4.38-5.16-7.94-5.82-1.34-.25-2.72-.31-4.08-.44-.49-.05-.82,0-.53.66,1.01,2.28,1.96,4.59,3.52,6.59,1.47,1.89,3.4,2.94,5.71,2.61,3.91-.57,6.05,1.86,8.24,4.39-1.3-.57-2.62-1.11-3.89-1.73-3-1.46-5.72-.85-8.29,1.02-.5.36-.67.48-1.37,1.05l-.38.29c-.25.19-.21.58.08.72l1.99.96c1.46.71,2.85,1.66,4.64,1.39,1.64-.25,3.06-1.02,4.4-1.9,1.81-1.17,3.17-1.04,4.67.67.75.86,1.31,1.85,1.76,2.89,1.39,3.2,1.98,6.54,1.65,10.02-.09.13-.17.27-.23.42-.47-.86-.69-1.68-.81-2.53-.17-1.19-.42-2.36-.76-3.51-.56-1.86-1.83-2.99-3.56-3.73-2.42-1.04-5.01-1.03-7.56-1.26-.57-.05-.44.25-.37.65.21,1.28.28,3.63,2.13,6.33l.34.37c1.38,1.51,3.09,2.71,5.04,3.34,1.33.44,2.73.67,4.15.67.23,0,.36,0,.36,0,0,0,.07.12.18.3.13.22.31.54.51.89-.11,1.1-.03,2.46.06,3.95.03.54.06,1.08.09,1.64-.84-1.94-2.03-3.13-2.03-3.13-1.63-1.98-9.63-6.89-9.63-6.89-3.15-1.81-8.1-7.14-8.1-7.14,0,0-14.73-14.73-9.88-21.6,0,0-2.83,1.49-2.4,6.03.11,1.2.46,2.36.98,3.45,1.23,2.59,4.54,8.64,10.95,14.75l.65.59.32.32c1.49,1.36,3.13,2.71,4.94,4.01.72.52,1.48.97,2.25,1.4.81.45,1.92,1.24,3.31,2.01,6.82,3.74,7.79,10.92,7.79,10.92,0,0,.19.91.21,2.54,0,0-.18-7.72-10.69-13.58ZM134.16,59.72c1.37-1.07,2.57-2.02,3.78-2.93,1.35-1.01,3-1.45,4.48-2.22-3.31-.31-5.53,2.18-8.34,3.29.68-3.77,6.61-6.06,10.26-3.94-.5.46-1,.87-1.44,1.35-1.1,1.17-2,2.52-3.23,3.59-1.46,1.27-3.1,1.61-5.12,1.31-.14-.15-.27-.3-.4-.44ZM135.07,48.62c.29-.04.66-.09,1.11-.13.51,0,1.02-.04,1.53-.12.11,0,.21-.01.33-.02.07,0,.84-.08,2.03-.72.05-.02.09-.04.14-.07.62-.33,1.17-.72,1.67-1.15,1.04-.84,2.22-2.04,3.44-3.77.25-.35.57-.55,1-.62,1.44-.22,3.58,1.1,4.29,1.64,1.99,1.42,2.91,3.67,2.79,6.86-.12,3.29-1.55,6.45-4.03,8.89-3.07,3.03-6.1,4.37-9,4-1.85-.24-3.4-1.15-4.6-2.14,2.36.09,4.41-.8,6.24-2.46,1.75-1.58,2.29-2.45,4.24-5.07.49-.66-.92-1.15-.92-1.15-7.47-2.44-12.16,3.57-12.16,3.57-1.51-7.15,1.9-7.56,1.9-7.56ZM119.8,25.79c-1.37-1.16-2.98-1.94-4.52-2.83-.86-.5-1.81-.66-1.81-.66.88,1.08,2,1.79,2,1.79,2.18,1.51,3.08,1.75,4.5,3.1-2.01.34-3.77.19-5.24-1.11-1.47-1.29-2.24-3.1-3.23-4.73-.32-.53-.02-.67.47-.61,2.02.22,4,.58,5.77,1.68,1.58.97,2.5,2.42,3.06,4.2-.33-.27-.67-.54-1-.81ZM116.99,33.93c1.02.03,1.96-.08,1.96-.08,2.79-.46,3.9.06,3.9.06-2.37,2.27-6.44,1.15-8.09.18-.26-.15-.03-.36-.03-.36l.11-.09c1.37-1.06,4.06-1.83,5.34-1.7.89.09,2.55.62,3.26,1.4-1.88-.77-4.14.29-7.44.44.32.09.65.14.98.15ZM120.81,40.39c-.09-.55.12-.66.58-.67,1.91-.02,3.76.24,5.44,1.23,1.43.85,3.01,3.42,2.95,4.8-2.31-2.09-4.61-4.22-7.79-4.99,2.5,2.47,6,3.79,8.05,7.03-4.57.27-8.51-3-9.22-7.41ZM100.02,101.44c0,3.31-.54,5.97-1.68,7.87-1.03,1.95-3.42,2.93-5.81,2.93s-4.83-.98-5.92-2.93c-2.88-4.99-2.82-18.4,5.86-18.62,6.03.05,7.49,4.99,7.55,10.75ZM157.66,103.4c.11-2.39.65-4.89,1.68-7.06,1.03-2.12,2.61-4.07,4.78-4.99,1.19-.49,2.44-.65,3.69-.65,1.57,0,3.31.43,4.4,1.68,1.46,1.74,1.3,4.29.92,6.35-.05.33-.11.6-.16.87-.98,3.96-4.34,6.89-7.98,8.41-1.09.49-3.42,1.19-6.08,1.57l-.71.11c-.43-2.01-.6-4.13-.54-6.3Z"/>
  <path class="cls-1" d="M187.57,83.42h-.71c-.05.65-.43,3.26-2.66,5.26-1.79,1.52-3.8,1.85-4.51,1.9v.65h3.86v23.18c0,2.66,1.09,5.75,4.07,5.86,2.6.11,4.23-2.77,4.89-4.89h-.27c-.16.16-.33.49-.6.81-.38.38-.92,1.03-1.79,1.14-.22.05-.76.16-1.25-.11-.11-.11-.27-.22-.38-.33-.33-.38-.43-.92-.49-1.41-.16-1.14-.16-2.28-.11-3.42l-.06-20.84h6.03v-.65h-6.03v-7.17Z"/>
  <path class="cls-1" d="M218.51,117.62c-.49-1.36-.76-3.09-.76-5.26,0,0,.06-10.69.06-14.28,0-1.95-.71-3.8-2.01-5.21-1.74-1.9-3.47-2.28-4.99-2.5-.81-.11-2.17-.33-4.29.16-4.29.98-7,3.96-8.14,5.32,1.03,1.63,2.06,3.26,3.04,4.89.06-.16.06-.43.11-.81.81-4.83,4.18-8.74,6.51-9.06,1.3-.16,3.09,0,4.07.98.92.87,1.36,2.12,1.52,3.37.05.38.05.71.05,1.03v4.83c-2.55.65-5.16,1.47-7.71,2.28-2.61.87-5.16,1.74-7.38,3.64-1.68,1.47-2.93,3.58-2.99,5.81-.05,2.12,1.03,4.07,2.55,5.37,1.52,1.3,3.53,1.95,5.48,2.17,1.36.16,2.99.38,5-.43,2.33-.98,3.64-2.82,3.96-3.26.49-.76.87-1.47,1.14-2.17v2.06c0,2.06,1.63,3.75,3.75,3.75h3.69v-.11c-1.25-.38-2.12-1.25-2.66-2.55ZM207.33,119.41c-2.12.38-5.05-.22-6.68-2.6-1.25-1.85-1.25-4.4-.38-6.51,2.01-4.56,7.22-6.62,11.35-8.03.76-.27,1.47-.49,2.06-.65,0,2.82.06,11.45.06,12.05-1.3,3.04-3.69,5.26-6.41,5.75Z"/>
</svg>